<svg baseProfile="full" contentScriptType="text/ecmascript" contentStyleType="text/css" height="128pt" preserveAspectRatio="xMidYMid meet" version="1.1" viewBox="0 0 128 128" width="128pt" xmlns="http://www.w3.org/2000/svg" xmlns:cc="http://creativecommons.org/ns#" xmlns:dc="http://purl.org/dc/elements/1.1/" xmlns:rdf="http://www.w3.org/1999/02/22-rdf-syntax-ns#" xmlns:svg="http://www.w3.org/2000/svg" zoomAndPan="magnify">
  <metadata>
    <rdf:RDF>
      <cc:Work rdf:about="">
        <dc:format>image/svg+xml</dc:format>
        <dc:type rdf:resource="http://purl.org/dc/dcmitype/StillImage"/>
      </cc:Work>
    </rdf:RDF>
  </metadata>
  <defs>
  </defs>
  <path d="M0,0h1c0.01,42-0.02,84,0.01,126l-0.02,0.99-0.99,0.03v-127.02z" fill="#a2831f" stroke="#a2831f"/>
  <path d="M1,0h49.04l-0.07,0.98c-0.69,0.05-2.07,0.16-2.76,0.21-5.66-0.12-11.33-0.21-17,0.02-9.38-0.18-18.78-0.43-28.16-0.14-0.06,41.29-0.14,82.58,0.03,123.86l0.94,0.06c4.01,0.06,8.03,0.06,12.04,0,8.65,0.04,17.30-0.02,25.95,0.02l-0.01,0.98c-13.33,0.03-26.66,0-39.99,0.01-0.03-42,0-84-0.01-126z" fill="#c99e2e" stroke="#c99e2e"/>
  <path d="M50.04,0h77.96v0.97l-1,0.04-1,0.01c-9.93,0.08-19.87-0.31-29.79,0.19-11.99-0.17-24-0.51-35.99-0.04-3.42-0.05-6.83-0.18-10.25-0.19l0.07-0.98z" fill="#c3b230" stroke="#c3b230"/>
  <path d="M2.05,1.07c9.38-0.29,18.78-0.04,28.16,0.14-1.56,0.19-4.70,0.57-6.26,0.77-5.26,0.06-10.51-0.04-15.77,0.07-1.71-0.02-3.43-0.06-5.14,0.04-0.09,40.96-0.03,81.93-0.02,122.90l-0.94-0.06c-0.17-41.28-0.09-82.57-0.03-123.86z" fill="#d6a435" stroke="#d6a435"/>
  <path d="M30.21,1.21c5.67-0.23,11.34-0.14,17-0.02-4.21,1.06-9.27,0.51-13.02,2.98,1.65,19.23,3.65,38.42,4.96,57.67,0.84,0.53,1.73,0.97,2.66,1.31-0.92,1.27-1.94,2.48-2.71,3.84-0.29,0.56-0.86,1.67-1.15,2.22-0.90-1.40-1.73-2.84-2.68-4.20-0.50,1.18-1.01,2.37-1.48,3.57-1,2.29-1.81,4.68-2.05,7.19-0.21,1.61-0.63,4.85-0.84,6.46-0.43-0.16-1.27-0.48-1.69-0.64-1.13-22.47-3.71-44.86-5.62-67.28-0.05-4.01-1.65-8.55,0.36-12.33,1.56-0.20,4.70-0.58,6.26-0.77z" fill="#e3b241" stroke="#e3b241"/>
  <path d="M47.21,1.19c0.69-0.05,2.07-0.16,2.76-0.21,3.42,0.01,6.83,0.14,10.25,0.19-1.68,0.59-3.44,1.02-5.04,1.82,3.01,5.37,1.27,12,2.96,17.80,0.74,0.12,2.22,0.35,2.97,0.47-4.67,4.69-9.97,9.74-11.27,16.49-3.06,4.87-3.78,10.70-5.19,16.16-1.33,2.32-1.51,4.64-0.55,6.96-0.8,0.73-1.56,1.49-2.29,2.28-0.93-0.34-1.82-0.78-2.66-1.31-1.31-19.25-3.31-38.44-4.96-57.67,3.75-2.47,8.81-1.92,13.02-2.98z" fill="#e3b943" stroke="#e3b943"/>
  <path d="M60.22,1.17c11.99-0.47,24-0.13,35.99,0.04-3.98,0.55-8.02,0.51-12.01,0.98-1.67,1.17,0.08,3.62-1.86,4.60-0.57-0.19-1.72-0.56-2.29-0.75-6.84,4.38-12.88,9.85-18.94,15.22-0.75-0.12-2.23-0.35-2.97-0.47-1.69-5.80,0.05-12.43-2.96-17.80,1.60-0.80,3.36-1.23,5.04-1.82z" fill="#e1c045" stroke="#e1c045"/>
  <path d="M96.21,1.21c9.92-0.50,19.86-0.11,29.79-0.19-0.06,8.61,0.12,17.22-0.07,25.82-5,4.73-9.99,9.47-14.71,14.48-0.69,9.22,2.75,18.79-1.35,27.62-1.45,2.97-3.49,5.74-3.88,9.12-8.91,15.37-17.93,30.71-26.82,46.10,0.44-6.45,4.21-12.28,3.48-18.85-0.57-9.47-1.71-18.90-2.79-28.33,1.34-1.66,2.22-3.79,3.98-5.05,3.75,0.06,7.76-0.95,10.39-3.78,0.72-0.64,1.41-1.31,2.08-2,1.12-1.09,1.94-2.43,2.61-3.83-2.04-0.03-3.79-1.35-3.39-3.53,2.01,0.69,4.70,3.43,6.67,1.47,3.05-2.59,0.8-7.47,3.72-10.35-1.29,0.28-3.88,0.84-5.18,1.12-1.12-2.54-0.13-5.33,0.15-7.95,5.22-0.80,3.06-8.90,8.36-9.23,4.40,0.72-1.15-6.32-3.12-3-1.36,1.30-2.93,2.33-4.90,1.88-1.07-0.31-2.15-0.60-3.24-0.85,1.01-0.74,2-1.52,2.22-2.84-2.72,0.12-5.91-0.74-8.39,0.88-2.67-1.63-6.06-2.47-9.05-1.28-0.41,0.11-1.23,0.33-1.64,0.44-0.75-0.06-2.27-0.17-3.02-0.23-0.68-5.70-0.71-11.37-0.25-17.06,1.48-1.69,2.94-3.38,4.48-5,1.94-0.98,0.19-3.43,1.86-4.60,3.99-0.47,8.03-0.43,12.01-0.98z" fill="#e4ce49" stroke="#e4ce49"/>
  <path d="M126,1.02l1-0.01c-0.03,19.68,0.05,39.36-0.03,59.05l-1.05-0.27-0.06-1.06c0.03-3,0.09-5.98,0.03-8.97,0.17-7.64,0.12-15.28,0.04-22.92,0.19-8.60,0.01-17.21,0.07-25.82z" fill="#cac143" stroke="#cac143"/>
  <path d="M127,1.01l1-0.04v74.03h-0.99c-0.04-4.98,0.03-9.96-0.04-14.94,0.08-19.69,0-39.37,0.03-59.05z" fill="#a49d39" stroke="#a49d39"/>
  <path d="M3.04,2.09c1.71-0.10,3.43-0.06,5.14-0.04-0.92,0.84-1.87,1.64-2.79,2.48-1.11,7.40,0.48,14.80,0.99,22.16,2.88,32.77,5.74,65.54,8.68,98.30-4.01,0.06-8.03,0.06-12.04,0-0.01-40.97-0.07-81.94,0.02-122.90z" fill="#e3a73d" stroke="#e3a73d"/>
  <path d="M8.18,2.05c5.26-0.11,10.51-0.01,15.77-0.07-2.01,3.78-0.41,8.32-0.36,12.33,1.91,22.42,4.49,44.81,5.62,67.28,0.42,0.16,1.26,0.48,1.69,0.64,0.06,0.48,0.2,1.42,0.26,1.90-2.36,6.82-8.11,11.60-11.42,17.85-1.42-0.16-6.08-0.61-4.13,1.90,4,4.43,7.22,9.48,10.62,14.38,1.65,3.66,2.73-0.77,3.87-2.49l0.84,0.51c1.83,1.33,4.33,2.72,4.02-0.67,2.79,0.31,5.12,1.96,7.79,2.65,1.62,0.24,4.86,0.72,6.48,0.96-2.27,0.12-4.33,0.76-6.18,1.93,0.22,1.29,0.63,2.55,0.97,3.82-0.75,0.01-2.26,0.03-3.01,0.04-8.65-0.04-17.30,0.02-25.95-0.02-2.94-32.76-5.80-65.53-8.68-98.30-0.51-7.36-2.10-14.76-0.99-22.16,0.92-0.84,1.87-1.64,2.79-2.48z" fill="#e3ac3f" stroke="#e3ac3f"/>
  <path d="M80.05,6.04c0.57,0.19,1.72,0.56,2.29,0.75-1.54,1.62-3,3.31-4.48,5-5.72,6.72-11.06,13.79-15.61,21.36-0.87,0.55-1.73,1.09-2.60,1.63,2.88-7.95,9.30-13.67,13.47-20.80-9.18,5.97-16.99,14.47-22.04,24.23l-1.24-0.46c1.30-6.75,6.60-11.80,11.27-16.49,6.06-5.37,12.10-10.84,18.94-15.22z" fill="#6b7676" stroke="#6b7676"/>
  <path d="M62.25,33.15c4.55-7.57,9.89-14.64,15.61-21.36-0.46,5.69-0.43,11.36,0.25,17.06,0.75,0.06,2.27,0.17,3.02,0.23l-0.37,0.73c-0.99,1.63-1.70,3.47-3.04,4.86-3.45-1.59-4.77,0.96-6.04,2.95-0.92,0.64-1.82,1.30-2.70,1.99-1.66,1.14-3.44,2.10-5.19,3.09-2.59,0.8-3.66,3.26-4.79,5.48,0.04-5.19,1.48-10.20,3.25-15.03z" fill="#e0c046" stroke="#e0c046"/>
  <path d="M51.08,38.21c5.05-9.76,12.86-18.26,22.04-24.23-4.17,7.13-10.59,12.85-13.47,20.80-2.14,5.51-3.09,11.45-3.64,17.32,3.99-0.18,5.57-3.9,7.05-7,2.35-1,4.70-1.99,7.05-2.96-0.19,2.37-0.44,4.73-0.74,7.09,2.87-1.27,6.27-4.15,4.04-7.88-0.90-3.85,2.53-5.62,6.31-4.62,0.98-2.58,1.77-5.35,4.41-6.74l0.93,0.06c1.60,5.60-0.93,12.03-7.14,12.39,2.47,0.98,5.49,3.50,8.05,1.60,0.94-4.42,2.50-11,7.72-12.95,0.36,1.32,0.62,2.68,1.15,3.95l0.30,0.79c-0.15,3.09-0.29,6.21-1.01,9.24-0.29,0.21-0.89,0.63-1.18,0.84-2.45,0.62-4.68,2.39-3.98,5.19,1.77-0.85,3.41-1.94,5.21-2.73,1.72-0.58,3.33-1.43,4.95-2.24,0.06,2.61-0.69,5.41-2.91,7.01-2.28,0.67-6.69,0.41-6.24,3.87-0.86,2.60,1.42,1.57,2.96,1.35,1.42,2.45,2.28,5.18,3.37,7.79-0.67,0.69-1.36,1.36-2.08,2-3.56,0.94-7.14,2.03-10.39,3.78-1.76,1.26-2.64,3.39-3.98,5.05-0.86,0.43-1.73,0.83-2.60,1.22-2.80-0.36-5.37,1-7.19,3.05-1.30,0.72-2.68,1.31-4.12,1.73-1.02,0.27-1.99,0.66-2.91,1.16,0.35,4.93-0.79,13.12,6.30,12.64,0,0.78-0.03,1.56-0.11,2.34-8.21,2.57-15.15,7.98-21.63,13.49-1.63,0.48-1.39,2.15-1.47,3.51-4.19,3.35-6.91-2.68-5.15-6.14,1.34-0.69,2.70-1.36,4.05-2.04,2.20,0.26,4.30-1.64,3.88-3.91l0.05-0.88c3.40-0.63,3.84-5,6.84-6.46-1.8-2.46-4.32-4.47-5.24-7.47-3.47-1.28-2.80,4.03-5.63,4.69-5.98,2.24-10.84,6.50-15.89,10.27-0.69,2.61-0.41,5,0.85,7.15l0.47,0.84c-1.74,1.23-2.58-2.07-4.08-1.53-3.70,3.30-5.78-5.36-5.26-7.53,3.94-6.34,10.72-11.48,11.88-19.18,0.21-1.46,0.15-3.21,2.05-3.33,0.28,0.34,0.84,1.03,1.12,1.38-0.19,2.41-0.77,4.77-1.02,7.18,5.65-4.70,8.52-11.42,12.83-17.16-5.62-3.3-8.11,7.62-13.84,7.11-2.01-3.92,0.10-8.37,2.44-4.36,1.58-2.17,2.98-4.48,4.48-6.71,2.76-3.99,7.43-7.52,6.07-13.05,0.30-5.81,2.89-11.15,4.05-16.78z" fill="#4078bb" stroke="#4078bb"/>
  <path d="M111.22,41.32c4.72-5.01,9.71-9.75,14.71-14.48,0.08,7.64,0.13,15.28-0.04,22.92-7.11,8.77-11,19.76-17.05,29.30-0.96-0.32-1.91-0.66-2.85-1,0.39-3.38,2.43-6.15,3.88-9.12,4.10-8.83,0.66-18.40,1.35-27.62z" fill="#e6d64d" stroke="#e6d64d"/>
  <path d="M82.77,28.64c2.99-1.19,6.38-0.35,9.05,1.28-1.38,1.32-2.82,2.61-3.86,4.23-0.36-1.05-0.69-2.12-1-3.18,0.80-0.57,1.57-1.18,2.31-1.82-1.63-0.13-4.88-0.38-6.50-0.51z" fill="#b6a240" stroke="#b6a240"/>
  <path d="M81.13,29.08c0.41-0.11,1.23-0.33,1.64-0.44,1.62,0.13,4.87,0.38,6.50,0.51-0.74,0.64-1.51,1.25-2.31,1.82-0.48-0.23-1.43-0.69-1.90-0.92l-0.93-0.06c-0.85-0.05-2.53-0.14-3.37-0.18l0.37-0.73z" fill="#7d774b" stroke="#7d774b"/>
  <path d="M91.82,29.92c2.48-1.62,5.67-0.76,8.39-0.88-0.22,1.32-1.21,2.10-2.22,2.84-0.53,0.01-1.59,0.03-2.12,0.04,2.68-3.03-2.17-1.70-4.05-2z" fill="#9d8f3a" stroke="#9d8f3a"/>
  <path d="M77.72,34.67c1.34-1.39,2.05-3.23,3.04-4.86,0.84,0.04,2.52,0.13,3.37,0.18-2.64,1.39-3.43,4.16-4.41,6.74-3.78-1-7.21,0.77-6.31,4.62,2.23,3.73-1.17,6.61-4.04,7.88,0.30-2.36,0.55-4.72,0.74-7.09-2.35,0.97-4.70,1.96-7.05,2.96,0.18-0.6,0.55-1.8,0.73-2.4,1.75-0.99,3.53-1.95,5.19-3.09,2.17,1.62,2,4.39,2.88,6.74,0.14-2.91,0.07-5.82-0.18-8.73,1.27-1.99,2.59-4.54,6.04-2.95z" fill="#5f6e78" stroke="#5f6e78"/>
  <path d="M85.06,30.05c0.47,0.23,1.42,0.69,1.90,0.92-0.24,1.52-0.73,4.55-0.97,6.07,0,1.75-0.01,5.25-0.02,7-2.56,1.90-5.58-0.62-8.05-1.60,6.21-0.36,8.74-6.79,7.14-12.39z" fill="#4d6273" stroke="#4d6273"/>
  <path d="M91.82,29.92c1.88,0.30,6.73-1.03,4.05,2-0.54,0.97-0.89,2.01-1.03,3.12-0.53-1.27-0.79-2.63-1.15-3.95-5.22,1.95-6.78,8.53-7.72,12.95,0.01-1.75,0.02-5.25,0.02-7,0.90-0.78,1.45-1.84,1.97-2.89,1.04-1.62,2.48-2.91,3.86-4.23z" fill="#456688" stroke="#456688"/>
  <path d="M106.13,30.85c1.97-3.32,7.52,3.72,3.12,3-0.54-1.43-1.41-2.94-3.12-3z" fill="#ab9f40" stroke="#ab9f40"/>
  <path d="M85.99,37.04c0.24-1.52,0.73-4.55,0.97-6.07,0.31,1.06,0.64,2.13,1,3.18-0.52,1.05-1.07,2.11-1.97,2.89z" fill="#776f40" stroke="#776f40"/>
  <path d="M106.13,30.85c1.71,0.06,2.58,1.57,3.12,3-5.30,0.33-3.14,8.43-8.36,9.23-1.27,0.18-3.33,1.53-3.13-0.74,1.74-2.96-0.68-9.11,3.47-9.61,1.97,0.45,3.54-0.58,4.90-1.88z" fill="#4773a0" stroke="#4773a0"/>
  <path d="M94.84,35.04c0.14-1.11,0.49-2.15,1.03-3.12,0.46,2.43,1.07,4.84,1.35,7.30,0.08,1.06,0.26,2.10,0.54,3.12-0.20,2.27,1.86,0.92,3.13,0.74-0.28,2.62-1.27,5.41-0.15,7.95-1.12,2.15-2.97,3.77-4.88,5.21-0.99-0.27-1.98-0.55-2.96-0.84,1.24-0.55,2.34-1.33,3.32-2.26,2.22-1.60,2.97-4.40,2.91-7.01-1.62,0.81-3.23,1.66-4.95,2.24-2.15,0.16-2.20-0.93-1.23-2.46,0.29-0.21,0.89-0.63,1.18-0.84,3.42-1.61,2.21-6.40,1.01-9.24l-0.30-0.79z" fill="#766c31" stroke="#766c31"/>
  <path d="M95.87,31.92c0.53-0.01,1.59-0.03,2.12-0.04-0.22,2.45-0.47,4.90-0.77,7.34-0.28-2.46-0.89-4.87-1.35-7.30z" fill="#dbc446" stroke="#dbc446"/>
  <path d="M97.99,31.88c1.09,0.25,2.17,0.54,3.24,0.85-4.15,0.50-1.73,6.65-3.47,9.61-0.28-1.02-0.46-2.06-0.54-3.12,0.30-2.44,0.55-4.89,0.77-7.34z" fill="#908946" stroke="#908946"/>
  <path d="M59.65,34.78c0.87-0.54,1.73-1.08,2.60-1.63-1.77,4.83-3.21,9.84-3.25,15.03,1.13-2.22,2.2-4.68,4.79-5.48-0.18,0.6-0.55,1.8-0.73,2.4-1.48,3.1-3.06,6.82-7.05,7,0.55-5.87,1.50-11.81,3.64-17.32z" fill="#7e807b" stroke="#7e807b"/>
  <path d="M95.14,35.83c1.20,2.84,2.41,7.63-1.01,9.24,0.72-3.03,0.86-6.15,1.01-9.24z" fill="#3d6490" stroke="#3d6490"/>
  <path d="M44.65,53.91c1.41-5.46,2.13-11.29,5.19-16.16l1.24,0.46c-1.16,5.63-3.75,10.97-4.05,16.78,1.36,5.53-3.31,9.06-6.07,13.05-0.47-0.27-1.40-0.79-1.86-1.05,0.77-1.36,1.79-2.57,2.71-3.84,0.73-0.79,1.49-1.55,2.29-2.28,1.68-2.25,1.86-4.58,0.55-6.96z" fill="#808588" stroke="#808588"/>
  <path d="M68.98,39.61c0.88-0.69,1.78-1.35,2.70-1.99,0.25,2.91,0.32,5.82,0.18,8.73-0.88-2.35-0.71-5.12-2.88-6.74z" fill="#787255" stroke="#787255"/>
  <path d="M88.97,51.1c-0.70-2.8,1.53-4.57,3.98-5.19-0.97,1.53-0.92,2.62,1.23,2.46-1.80,0.79-3.44,1.88-5.21,2.73z" fill="#3b6597" stroke="#3b6597"/>
  <path d="M100.74,51.03c1.30-0.28,3.89-0.84,5.18-1.12-2.92,2.88-0.67,7.76-3.72,10.35-0.58-3.03,3.4-10.05-1.46-9.23z" fill="#68612a" stroke="#68612a"/>
  <path d="M108.84,79.06c6.05-9.54,9.94-20.53,17.05-29.30,0.06,2.99,0,5.97-0.03,8.97-7.36,12.47-13.01,26.04-20.79,38.32-3.81,9.80-11.13,17.80-14.20,27.90-1.34,0.01-2.68,0.01-4.02,0,4.63-12.21,11.74-23.26,16.73-35.31,1.46-3.66,3.10-7.27,5.26-10.58z" fill="#e8d45a" stroke="#e8d45a"/>
  <path d="M100.74,51.03c4.86-0.82,0.88,6.20,1.46,9.23-1.97,1.96-4.66-0.78-6.67-1.47,0.01-0.86,0.15-1.71,0.33-2.55,1.91-1.44,3.76-3.06,4.88-5.21z" fill="#406fa2" stroke="#406fa2"/>
  <path d="M89.98,57.01c-0.45-3.46,3.96-3.20,6.24-3.87-0.98,0.93-2.08,1.71-3.32,2.26-1,0.48-1.96,1.05-2.92,1.61z" fill="#3a6598" stroke="#3a6598"/>
  <path d="M44.1,60.87c-0.96-2.32-0.78-4.64,0.55-6.96,1.31,2.38,1.13,4.71-0.55,6.96z" fill="#9e8e60" stroke="#9e8e60"/>
  <path d="M89.98,57.01c0.96-0.56,1.92-1.13,2.92-1.61,0.98,0.29,1.97,0.57,2.96,0.84-0.18,0.84-0.32,1.69-0.33,2.55-0.40,2.18,1.35,3.50,3.39,3.53-0.67,1.40-1.49,2.74-2.61,3.83-1.09-2.61-1.95-5.34-3.37-7.79-1.54,0.22-3.82,1.25-2.96-1.35z" fill="#444328" stroke="#444328"/>
  <path d="M105.07,97.05c7.78-12.28,13.43-25.85,20.79-38.32l0.06,1.06c0.04,3.32,0.11,6.65-0.01,9.97-5.35,5.55-6.94,13.59-11.36,19.84-6.30,11.74-12.51,23.52-18.61,35.39-1.69,0.02-3.38-0.01-5.07-0.04,3.07-10.10,10.39-18.10,14.20-27.90z" fill="#e9d763" stroke="#e9d763"/>
  <path d="M125.92,59.79l1.05,0.27c0.07,4.98,0,9.96,0.04,14.94-0.03,5.68-0.03,11.36-0.08,17.05l-1.03-0.34c0.02-3.99,0-7.97-0.07-11.95,0.08-3.34,0.16-6.67,0.08-10,0.12-3.32,0.05-6.65,0.01-9.97z" fill="#cec55d" stroke="#cec55d"/>
  <path d="M35.27,65.01c0.95,1.36,1.78,2.80,2.68,4.20-0.29,0.95-0.62,1.88-0.99,2.79-1.08-1.12-2.08-2.31-3.17-3.42,0.47-1.20,0.98-2.39,1.48-3.57z" fill="#756e5c" stroke="#756e5c"/>
  <path d="M39.1,66.99c0.46,0.26,1.39,0.78,1.86,1.05-1.50,2.23-2.90,4.54-4.48,6.71-2.34-4.01-4.45,0.44-2.44,4.36,5.73,0.51,8.22-10.41,13.84-7.11-4.31,5.74-7.18,12.46-12.83,17.16,0.25-2.41,0.83-4.77,1.02-7.18,0.35,0.45,1.04,1.36,1.39,1.81,2.64-1.74,4.72-4.58,4.63-7.86-2.29,1.71-4.29,3.90-7.14,4.67-1.90,0.12-1.84,1.87-2.05,3.33l-0.88,0.08c-0.08-2.75-0.18-5.50-0.28-8.24,0.24-2.51,1.05-4.90,2.05-7.19,1.09,1.11,2.09,2.30,3.17,3.42,0.37-0.91,0.70-1.84,0.99-2.79,0.29-0.55,0.86-1.66,1.15-2.22z" fill="#607184" stroke="#607184"/>
  <path d="M83.84,71.93c3.25-1.75,6.83-2.84,10.39-3.78-2.63,2.83-6.64,3.84-10.39,3.78z" fill="#50533c" stroke="#50533c"/>
  <path d="M114.55,89.6c4.42-6.25,6.01-14.29,11.36-19.84,0.08,3.33,0,6.66-0.08,10-6.90,10.21-10.75,22.13-17.60,32.38-1.91,4.37-5.69,7.98-6.41,12.82-1.96,0.03-3.92,0.04-5.88,0.03,6.10-11.87,12.31-23.65,18.61-35.39z" fill="#eada6d" stroke="#eada6d"/>
  <path d="M127.01,75h0.99v52c-8.34-0.01-16.67,0.01-25-0.01l0.01-0.97c0.74-0.01,2.24-0.03,2.99-0.04,6.98,0.03,13.96,0.12,20.94-0.04,0.13-11.30,0.13-22.60-0.01-33.89,0.05-5.69,0.05-11.37,0.08-17.05z" fill="#aaa35b" stroke="#aaa35b"/>
  <path d="M30.9,82.23c0.21-1.61,0.63-4.85,0.84-6.46,0.10,2.74,0.20,5.49,0.28,8.24l-0.86,0.12c-0.06-0.48-0.20-1.42-0.26-1.90z" fill="#7a6c4b" stroke="#7a6c4b"/>
  <path d="M34.95,80.6c2.85-0.77,4.85-2.96,7.14-4.67,0.09,3.28-1.99,6.12-4.63,7.86-0.35-0.45-1.04-1.36-1.39-1.81-0.28-0.35-0.84-1.04-1.12-1.38z" fill="#71674f" stroke="#71674f"/>
  <path d="M77.26,78.2c0.87-0.39,1.74-0.79,2.60-1.22,1.08,9.43,2.22,18.86,2.79,28.33,0.73,6.57-3.04,12.40-3.48,18.85l-0.23,0.83c-11.64,0-23.28,0.06-34.92-0.02-0.34-1.27-0.75-2.53-0.97-3.82,1.85-1.17,3.91-1.81,6.18-1.93,0.52-0.07,1.57-0.23,2.09-0.30,1.54,0.24,2.02-0.30,1.43-1.64-2.04-1.33-6.90-1.19-5.15-4.67,6.48-5.51,13.42-10.92,21.63-13.49,1.59-0.32,3.15-0.72,4.68-1.24-0.45-1.70-3.15-1.41-4.56-2.11-1.02-0.37-2.04-0.75-3.05-1.14-0.71-3.78-2.38-8.04-0.35-11.65,1.44-0.42,2.82-1.01,4.12-1.73,2.59-0.51,4.95-1.70,7.19-3.05z" fill="#e2bd44" stroke="#e2bd44"/>
  <path d="M70.07,81.25c1.82-2.05,4.39-3.41,7.19-3.05-2.24,1.35-4.60,2.54-7.19,3.05z" fill="#51503a" stroke="#51503a"/>
  <path d="M105.99,78.06c0.94,0.34,1.89,0.68,2.85,1-2.16,3.31-3.80,6.92-5.26,10.58-4.99,12.05-12.10,23.10-16.73,35.31-0.71,0.01-2.13,0.05-2.84,0.07-1.69-0.01-3.38-0.01-5.07-0.03l0.23-0.83c8.89-15.39,17.91-30.73,26.82-46.10z" fill="#e6cd52" stroke="#e6cd52"/>
  <path d="M108.23,112.14c6.85-10.25,10.70-22.17,17.60-32.38,0.07,3.98,0.09,7.96,0.07,11.95-4.03,5.33-6.21,11.75-9.74,17.39-2.71,5.31-6.23,10.23-8.35,15.83-0.45,0.02-1.37,0.05-1.82,0.07-1.39-0.01-2.78-0.02-4.17-0.04,0.72-4.84,4.50-8.45,6.41-12.82z" fill="#ecdd77" stroke="#ecdd77"/>
  <path d="M63.04,84.14c0.92-0.50,1.89-0.89,2.91-1.16-2.03,3.61-0.36,7.87,0.35,11.65,1.01,0.39,2.03,0.77,3.05,1.14l-0.01,1.01c-7.09,0.48-5.95-7.71-6.30-12.64z" fill="#58553d" stroke="#58553d"/>
  <path d="M31.16,84.13l0.86-0.12,0.88-0.08c-1.16,7.70-7.94,12.84-11.88,19.18-0.52,2.17,1.56,10.83,5.26,7.53,1.50-0.54,2.34,2.76,4.08,1.53,0.74,1.32,2.46,2.91,0.58,4.11l-0.84-0.51c-0.92-0.60-1.87-1.18-2.84-1.68-0.34,1.38-0.65,2.79-1.03,4.17-3.40-4.90-6.62-9.95-10.62-14.38,1.51-0.45,3.76,0.22,4.13-1.90,3.31-6.25,9.06-11.03,11.42-17.85z" fill="#4d657d" stroke="#4d657d"/>
  <path d="M44.93,93.91c2.83-0.66,2.16-5.97,5.63-4.69,0.92,3,3.44,5.01,5.24,7.47-3,1.46-3.44,5.83-6.84,6.46l-0.01-1.14c2.10-2.52,4.79-6.52,0.91-8.85-6.29,3.99-12.82,7.54-18.89,11.91-0.27,1.57-0.81,4.70-1.08,6.26-1.26-2.15-1.54-4.54-0.85-7.15,5.05-3.77,9.91-8.03,15.89-10.27z" fill="#54636e" stroke="#54636e"/>
  <path d="M116.16,109.1c3.53-5.64,5.71-12.06,9.74-17.39,0.03,4.35,0.09,8.71,0,13.06-1.22,1.20-2.62,2.34-3.13,4.04-2.09,5.65-5.45,10.67-7.94,16.13-1.75-0.01-5.26-0.01-7.02-0.01,2.12-5.60,5.64-10.52,8.35-15.83z" fill="#ede182" stroke="#ede182"/>
  <path d="M125.9,91.71l1.03,0.34c0.14,11.29,0.14,22.59,0.01,33.89-6.98,0.16-13.96,0.07-20.94,0.04l-0.01-0.98c0.45-0.02,1.37-0.05,1.82-0.07,1.76,0,5.27,0,7.02,0.01,2.78,0,8.34,0.01,11.11,0.01,0.13-6.73,0.14-13.45-0.04-20.18,0.09-4.35,0.03-8.71,0-13.06z" fill="#d2c976" stroke="#d2c976"/>
  <path d="M30.97,105.07c6.07-4.37,12.60-7.92,18.89-11.91,3.88,2.33,1.19,6.33-0.91,8.85-3.47,2.46-5.83,7.55-11.05,6.06-2.13-0.28,0.22,2.21,0.28,3.12-1.56,0.23-4.67,0.68-6.23,0.91-0.88-2.22-1.21-4.56-0.98-7.03z" fill="#e0b241" stroke="#e0b241"/>
  <path d="M69.35,95.77c1.41,0.70,4.11,0.41,4.56,2.11-1.53,0.52-3.09,0.92-4.68,1.24,0.08-0.78,0.11-1.56,0.11-2.34l0.01-1.01z" fill="#7e723a" stroke="#7e723a"/>
  <path d="M15.61,103.88c-1.95-2.51,2.71-2.06,4.13-1.90-0.37,2.12-2.62,1.45-4.13,1.90z" fill="#7e6433" stroke="#7e6433"/>
  <path d="M37.9,108.07c5.22,1.49,7.58-3.60,11.05-6.06l0.01,1.14-0.05,0.88c-1.74,0.78-3.09,2.19-3.88,3.91-1.35,0.68-2.71,1.35-4.05,2.04-0.49,0.25-1.48,0.76-1.97,1.02l-0.83,0.19c-0.06-0.91-2.41-3.40-0.28-3.12z" fill="#867647" stroke="#867647"/>
  <path d="M45.03,107.94c0.79-1.72,2.14-3.13,3.88-3.91,0.42,2.27-1.68,4.17-3.88,3.91z" fill="#3d6799" stroke="#3d6799"/>
  <path d="M29.89,111.33c0.27-1.56,0.81-4.69,1.08-6.26-0.23,2.47,0.10,4.81,0.98,7.03,0.55,1.61,2.98,0.74,4.28,1.28-2.21,0.44-4.24,0.93-1.27,2.23,0.31,3.39-2.19,2-4.02,0.67,1.88-1.20,0.16-2.79-0.58-4.11l-0.47-0.84z" fill="#887341" stroke="#887341"/>
  <path d="M122.77,108.81c0.51-1.70,1.91-2.84,3.13-4.04,0.18,6.73,0.17,13.45,0.04,20.18-2.77,0-8.33-0.01-11.11-0.01,2.49-5.46,5.85-10.48,7.94-16.13z" fill="#efe58f" stroke="#efe58f"/>
  <path d="M39.01,111c0.49-0.26,1.48-0.77,1.97-1.02-1.76,3.46,0.96,9.49,5.15,6.14,1.32,0.57,2.76,0.94,3.92,1.82-1.82,0.08-5.47,0.24-7.30,0.32-2.67-0.69-5-2.34-7.79-2.65-2.97-1.30-0.94-1.79,1.27-2.23,1.42-0.29,2.98-0.56,2.78-2.38z" fill="#426792" stroke="#426792"/>
  <path d="M38.18,111.19l0.83-0.19c0.20,1.82-1.36,2.09-2.78,2.38-1.30-0.54-3.73,0.33-4.28-1.28,1.56-0.23,4.67-0.68,6.23-0.91z" fill="#af8b39" stroke="#af8b39"/>
  <path d="M46.13,116.12c0.08-1.36-0.16-3.03,1.47-3.51-1.75,3.48,3.11,3.34,5.15,4.67,0.59,1.34,0.11,1.88-1.43,1.64-0.32-0.25-0.95-0.73-1.27-0.98-1.16-0.88-2.60-1.25-3.92-1.82z" fill="#af9241" stroke="#af9241"/>
  <path d="M27.26,114.09c0.97,0.50,1.92,1.08,2.84,1.68-1.14,1.72-2.22,6.15-3.87,2.49,0.38-1.38,0.69-2.79,1.03-4.17z" fill="#9a8045" stroke="#9a8045"/>
  <path d="M42.75,118.26c1.83-0.08,5.48-0.24,7.30-0.32,0.32,0.25,0.95,0.73,1.27,0.98-0.52,0.07-1.57,0.23-2.09,0.30-1.62-0.24-4.86-0.72-6.48-0.96z" fill="#6d7b7a" stroke="#6d7b7a"/>
  <path d="M41.01,125.01c0.75-0.01,2.26-0.03,3.01-0.04,11.64,0.08,23.28,0.02,34.92,0.02,1.69,0.02,3.38,0.02,5.07,0.03l-0.02,0.96c-1.66,0.02-3.32,0.02-4.99,0.04-12.67-0.07-25.33,0.02-38-0.03l0.01-0.98z" fill="#c9a83a" stroke="#c9a83a"/>
  <path d="M84.01,125.02c0.71-0.02,2.13-0.06,2.84-0.07,1.34,0.01,2.68,0.01,4.02,0,1.69,0.03,3.38,0.06,5.07,0.04,1.96,0.01,3.92,0,5.88-0.03,1.39,0.02,2.78,0.03,4.17,0.04l0.01,0.98c-0.75,0.01-2.25,0.03-2.99,0.04-6.34-0.05-12.68,0.02-19.02-0.04l0.02-0.96z" fill="#cdbb58" stroke="#cdbb58"/>
  <path d="M1.01,126c13.33-0.01,26.66,0.02,39.99-0.01,12.67,0.05,25.33-0.04,38,0.03v0.97l-0.99,0.03c-25.67-0.05-51.35,0-77.02-0.03l0.02-0.99z" fill="#a3822c" stroke="#a3822c"/>
  <path d="M79,126.02c1.67-0.02,3.33-0.02,4.99-0.04,6.34,0.06,12.68-0.01,19.02,0.04l-0.01,0.97-0.99,0.03c-7.67-0.03-15.34-0.01-23.01-0.03v-0.97z" fill="#a69642" stroke="#a69642"/>
  <path d="M0,127.02l0.99-0.03c25.67,0.03,51.35-0.02,77.02,0.03l-0.03,0.98h-77.98v-0.98z" fill="#725a21" stroke="#725a21"/>
  <path d="M78.01,127.02l0.99-0.03c7.67,0.02,15.34,0,23.01,0.03l-0.03,0.98h-24l0.03-0.98z" fill="#756831" stroke="#756831"/>
  <path d="M102.01,127.02l0.99-0.03c8.33,0.02,16.66,0,25,0.01v1h-26.02l0.03-0.98z" fill="#787146" stroke="#787146"/>
</svg>